<svg width="128" height="32" viewBox="0 0 128 32" fill="none" xmlns="http://www.w3.org/2000/svg">
<g style="mix-blend-mode:difference">
<path d="M0 12.9255C0 11.1477 0.282353 9.56863 0.847059 8.18824C1.43268 6.78693 2.23791 5.60523 3.26275 4.64314C4.3085 3.68105 5.55294 2.94902 6.99608 2.44706C8.43922 1.9451 10.0183 1.69412 11.7333 1.69412C13.4693 1.69412 15.0588 1.9451 16.502 2.44706C17.9451 2.94902 19.1791 3.68105 20.2039 4.64314C21.2497 5.60523 22.0549 6.78693 22.6196 8.18824C23.2052 9.56863 23.498 11.1477 23.498 12.9255C23.498 14.7033 23.2052 16.2928 22.6196 17.6941C22.0549 19.0745 21.2497 20.2458 20.2039 21.2078C19.1791 22.1699 17.9451 22.8915 16.502 23.3725C15.0588 23.8327 13.4693 24.0627 11.7333 24.0627C10.0183 24.0627 8.43922 23.8327 6.99608 23.3725C5.55294 22.8915 4.3085 22.1699 3.26275 21.2078C2.23791 20.2458 1.43268 19.0745 0.847059 17.6941C0.282353 16.2928 0 14.7033 0 12.9255ZM20.4235 12.9255C20.4235 11.1895 20.2039 9.69412 19.7647 8.43922C19.3255 7.1634 18.7085 6.11765 17.9137 5.30196C17.1399 4.46536 16.2196 3.84837 15.1529 3.45098C14.1072 3.0536 12.9673 2.8549 11.7333 2.8549C10.5203 2.8549 9.38039 3.0536 8.31373 3.45098C7.26797 3.84837 6.34771 4.46536 5.55294 5.30196C4.77909 6.11765 4.17255 7.1634 3.73333 8.43922C3.29412 9.69412 3.07451 11.1895 3.07451 12.9255C3.07451 14.6614 3.29412 16.1673 3.73333 17.4431C4.17255 18.698 4.77909 19.7438 5.55294 20.5804C6.34771 21.3961 7.26797 22.0026 8.31373 22.4C9.38039 22.7974 10.5203 22.9961 11.7333 22.9961C12.9673 22.9961 14.1072 22.7974 15.1529 22.4C16.2196 22.0026 17.1399 21.3961 17.9137 20.5804C18.7085 19.7438 19.3255 18.698 19.7647 17.4431C20.2039 16.1673 20.4235 14.6614 20.4235 12.9255Z" fill="white"/>
<path d="M34.3846 11.3255C34.28 11.2 34.0708 11.085 33.7571 10.9804C33.4643 10.8758 33.161 10.8235 32.8473 10.8235C32.3453 10.8235 31.8957 10.9386 31.4983 11.1686C31.1009 11.3987 30.7663 11.7124 30.4944 12.1098C30.2225 12.4863 30.0133 12.9464 29.8669 13.4902C29.7205 14.0131 29.6473 14.5778 29.6473 15.1843V18.6353C29.6473 20.0366 29.6473 21.1137 29.6473 21.8667C29.6682 22.5987 29.71 23.1948 29.7728 23.6549C29.3545 23.6131 28.9362 23.5922 28.5179 23.5922C28.0578 23.5922 27.6185 23.6131 27.2002 23.6549C27.263 22.9438 27.2944 21.9817 27.2944 20.7686C27.3153 19.5346 27.3257 18.0288 27.3257 16.251V15.2471C27.3257 14.4314 27.3153 13.4902 27.2944 12.4235C27.2944 11.3569 27.263 10.1333 27.2002 8.75294C27.4303 8.79477 27.6499 8.8366 27.8591 8.87843C28.0682 8.89935 28.2878 8.9098 28.5179 8.9098C28.7061 8.9098 28.9048 8.89935 29.114 8.87843C29.3231 8.8366 29.5427 8.79477 29.7728 8.75294C29.6891 9.50588 29.6368 10.102 29.6159 10.5412C29.6159 10.9804 29.6159 11.3987 29.6159 11.7961L29.6787 11.8275C30.9127 9.56863 32.2931 8.43922 33.8199 8.43922C34.0081 8.43922 34.165 8.44967 34.2904 8.47059C34.4368 8.4915 34.6146 8.54379 34.8238 8.62745C34.7192 8.87843 34.6565 9.26536 34.6355 9.78824C34.6146 10.2902 34.6042 10.7503 34.6042 11.1686L34.3846 11.3255Z" fill="white"/>
<path d="M38.024 3.29412C38.024 2.8549 38.1809 2.47843 38.4946 2.16471C38.8083 1.85098 39.1848 1.69412 39.624 1.69412C40.0632 1.69412 40.4397 1.85098 40.7534 2.16471C41.0672 2.47843 41.224 2.8549 41.224 3.29412C41.224 3.73333 41.0672 4.1098 40.7534 4.42353C40.4397 4.73726 40.0632 4.89412 39.624 4.89412C39.1848 4.89412 38.8083 4.73726 38.4946 4.42353C38.1809 4.1098 38.024 3.73333 38.024 3.29412ZM38.4632 14.6196C38.4632 13.6784 38.4423 12.6954 38.4005 11.6706C38.3796 10.6248 38.3168 9.65229 38.2123 8.75294C38.7979 8.85752 39.2685 8.9098 39.624 8.9098C39.9796 8.9098 40.4502 8.85752 41.0358 8.75294C40.9312 9.65229 40.858 10.6248 40.8162 11.6706C40.7953 12.6954 40.7848 13.6784 40.7848 14.6196V17.8824C40.7848 18.8235 40.7953 19.817 40.8162 20.8627C40.858 21.8876 40.9312 22.8183 41.0358 23.6549C40.5547 23.6131 40.0842 23.5922 39.624 23.5922C39.1639 23.5922 38.6933 23.6131 38.2123 23.6549C38.3168 22.8183 38.3796 21.8876 38.4005 20.8627C38.4423 19.817 38.4632 18.8235 38.4632 17.8824V14.6196Z" fill="white"/>
<path d="M56.7007 26.9804C56.7007 25.7255 56.3347 24.8471 55.6027 24.3451C54.8707 23.8431 53.6576 23.5922 51.9635 23.5922C50.3948 23.5922 49.1818 23.8431 48.3243 24.3451C47.4667 24.868 47.038 25.7987 47.038 27.1373C47.038 27.8484 47.153 28.4549 47.3831 28.9569C47.6341 29.4588 47.9583 29.8667 48.3556 30.1804C48.7739 30.4941 49.2654 30.7242 49.8301 30.8706C50.3949 31.017 51.0014 31.0902 51.6498 31.0902C52.2772 31.0902 52.8942 31.0065 53.5007 30.8392C54.1073 30.6719 54.6406 30.4209 55.1007 30.0863C55.5818 29.7516 55.9687 29.3229 56.2615 28.8C56.5543 28.298 56.7007 27.6915 56.7007 26.9804ZM55.0066 13.3961C55.0066 12.0784 54.6929 11.0745 54.0654 10.3843C53.438 9.69412 52.6118 9.34902 51.587 9.34902C50.4576 9.34902 49.5792 9.73595 48.9517 10.5098C48.3243 11.2627 48.0105 12.2771 48.0105 13.5529C48.0105 14.8706 48.2929 15.9163 48.8576 16.6902C49.4432 17.4431 50.3426 17.8196 51.5556 17.8196C52.1622 17.8196 52.6746 17.7046 53.0929 17.4745C53.5321 17.2235 53.8877 16.8993 54.1596 16.502C54.4524 16.0837 54.6615 15.6131 54.787 15.0902C54.9334 14.5464 55.0066 13.9817 55.0066 13.3961ZM45.5635 13.5529C45.5635 12.6745 45.7203 11.9216 46.0341 11.2941C46.3478 10.6458 46.7766 10.1124 47.3203 9.69412C47.885 9.27582 48.523 8.96209 49.2341 8.75294C49.9661 8.54379 50.74 8.43922 51.5556 8.43922C51.953 8.43922 52.3295 8.44967 52.685 8.47059C53.0615 8.4915 53.5321 8.52288 54.0968 8.56471C54.5779 8.60654 55.0066 8.63791 55.3831 8.65882C55.7596 8.67974 56.0628 8.6902 56.2929 8.6902C57.4641 8.6902 58.3112 8.63791 58.8341 8.53333C58.8132 8.63791 58.7922 8.75294 58.7713 8.87843C58.7713 8.98301 58.7713 9.08758 58.7713 9.19216C58.7713 9.29673 58.7713 9.41177 58.7713 9.53726C58.7922 9.64183 58.8132 9.74641 58.8341 9.85098C58.2275 9.80915 57.6315 9.76732 57.0458 9.72549C56.4811 9.66275 55.9164 9.62092 55.3517 9.6L55.289 9.66275C55.9373 10.0183 56.4602 10.5725 56.8576 11.3255C57.255 12.0575 57.4537 12.8209 57.4537 13.6157C57.4537 15.1843 56.9203 16.4183 55.8537 17.3176C54.8079 18.1961 53.3962 18.6353 51.6184 18.6353C51.3256 18.6353 51.0328 18.6248 50.74 18.6039C50.4681 18.583 50.1857 18.5725 49.8929 18.5725C49.5164 18.5725 49.1609 18.7085 48.8262 18.9804C48.5125 19.2523 48.3556 19.5974 48.3556 20.0157C48.3556 20.5595 48.4811 20.9569 48.7321 21.2078C49.004 21.4588 49.4955 21.5948 50.2066 21.6157C50.7922 21.6366 51.3674 21.6575 51.9321 21.6784C52.4968 21.6784 53.072 21.6889 53.6576 21.7098C54.6197 21.7307 55.4354 21.8458 56.1047 22.0549C56.7949 22.2641 57.3491 22.5464 57.7674 22.902C58.2066 23.2575 58.5203 23.6654 58.7086 24.1255C58.9177 24.5856 59.0223 25.0876 59.0223 25.6314C59.0223 26.3634 58.8759 27.1059 58.5831 27.8588C58.3112 28.6118 57.872 29.2915 57.2654 29.898C56.6798 30.5046 55.9164 31.0065 54.9752 31.4039C54.0341 31.8013 52.9047 32 51.587 32C49.5583 32 47.9582 31.5922 46.787 30.7765C45.6158 29.9817 45.0301 28.8837 45.0301 27.4824C45.0301 26.9386 45.1243 26.4366 45.3125 25.9765C45.5217 25.5163 45.7831 25.1085 46.0968 24.7529C46.4105 24.3974 46.7661 24.115 47.1635 23.9059C47.5609 23.6967 47.9687 23.5399 48.387 23.4353V23.3725C47.7386 23.1843 47.2471 22.8706 46.9125 22.4314C46.5779 21.9922 46.4105 21.4693 46.4105 20.8627C46.4105 20.5072 46.4733 20.183 46.5988 19.8902C46.7452 19.5974 46.923 19.3359 47.1321 19.1059C47.3413 18.8758 47.5818 18.6876 47.8537 18.5412C48.1256 18.3948 48.387 18.3007 48.638 18.2588V18.1961C47.6759 17.7778 46.923 17.1922 46.3792 16.4392C45.8354 15.6654 45.5635 14.7033 45.5635 13.5529Z" fill="white"/>
<path d="M62.4419 3.29412C62.4419 2.8549 62.5988 2.47843 62.9125 2.16471C63.2262 1.85098 63.6027 1.69412 64.0419 1.69412C64.4811 1.69412 64.8576 1.85098 65.1713 2.16471C65.485 2.47843 65.6419 2.8549 65.6419 3.29412C65.6419 3.73333 65.485 4.1098 65.1713 4.42353C64.8576 4.73726 64.4811 4.89412 64.0419 4.89412C63.6027 4.89412 63.2262 4.73726 62.9125 4.42353C62.5988 4.1098 62.4419 3.73333 62.4419 3.29412ZM62.8811 14.6196C62.8811 13.6784 62.8602 12.6954 62.8184 11.6706C62.7975 10.6248 62.7347 9.65229 62.6301 8.75294C63.2158 8.85752 63.6864 8.9098 64.0419 8.9098C64.3975 8.9098 64.8681 8.85752 65.4537 8.75294C65.3491 9.65229 65.2759 10.6248 65.2341 11.6706C65.2132 12.6954 65.2027 13.6784 65.2027 14.6196V17.8824C65.2027 18.8235 65.2132 19.817 65.2341 20.8627C65.2759 21.8876 65.3491 22.8183 65.4537 23.6549C64.9726 23.6131 64.502 23.5922 64.0419 23.5922C63.5818 23.5922 63.1112 23.6131 62.6301 23.6549C62.7347 22.8183 62.7975 21.8876 62.8184 20.8627C62.8602 19.817 62.8811 18.8235 62.8811 17.8824V14.6196Z" fill="white"/>
<path d="M81.0245 14.8392C81.0245 13.2706 80.7212 12.0889 80.1147 11.2941C79.5082 10.4784 78.6716 10.0706 77.6049 10.0706C76.1408 10.0706 75.0637 10.5203 74.3735 11.4196C73.7042 12.319 73.3696 13.5843 73.3696 15.2157V17.8824C73.3696 18.8235 73.3801 19.817 73.401 20.8627C73.4428 21.8876 73.516 22.8183 73.6206 23.6549C73.1395 23.6131 72.669 23.5922 72.2088 23.5922C71.7487 23.5922 71.2781 23.6131 70.7971 23.6549C70.9016 22.8183 70.9644 21.8876 70.9853 20.8627C71.0271 19.817 71.048 18.8235 71.048 17.8824V14.6196C71.048 13.6784 71.0271 12.6954 70.9853 11.6706C70.9644 10.6248 70.9016 9.65229 70.7971 8.75294C71.3827 8.85752 71.8533 8.9098 72.2088 8.9098C72.3761 8.9098 72.5539 8.89935 72.7422 8.87843C72.9513 8.8366 73.1918 8.79477 73.4637 8.75294C73.401 9.58954 73.3696 10.4261 73.3696 11.2627H73.4324C74.018 10.3634 74.7186 9.6732 75.5343 9.19216C76.35 8.6902 77.3225 8.43922 78.452 8.43922C79.0376 8.43922 79.6232 8.52288 80.2088 8.6902C80.8154 8.85752 81.3591 9.15033 81.8402 9.56863C82.3212 9.96601 82.7082 10.5203 83.001 11.2314C83.3147 11.9216 83.4716 12.8105 83.4716 13.898C83.4716 14.7974 83.4507 15.7281 83.4088 16.6902C83.367 17.6314 83.3461 18.6353 83.3461 19.702V21.7412C83.3461 22.0758 83.3461 22.4105 83.3461 22.7451C83.367 23.0588 83.3879 23.3621 83.4088 23.6549C82.9905 23.6131 82.5513 23.5922 82.0912 23.5922C81.652 23.5922 81.2232 23.6131 80.8049 23.6549C80.8467 22.5673 80.8886 21.4484 80.9304 20.298C80.9931 19.1477 81.0245 17.966 81.0245 16.7529V14.8392Z" fill="white"/>
<path d="M96.2924 15.8431C95.9368 15.9686 95.5185 16.0732 95.0375 16.1569C94.5774 16.2405 94.1068 16.3346 93.6257 16.4392C93.1447 16.5229 92.6636 16.6379 92.1826 16.7843C91.7225 16.9307 91.3042 17.1294 90.9277 17.3804C90.5721 17.6314 90.2793 17.9451 90.0493 18.3216C89.8401 18.698 89.7355 19.1791 89.7355 19.7647C89.7355 20.7477 90.0179 21.4902 90.5826 21.9922C91.1473 22.4941 91.7747 22.7451 92.465 22.7451C93.2597 22.7451 93.9813 22.5255 94.6297 22.0863C95.2989 21.6471 95.8114 21.1346 96.1669 20.549L96.2924 15.8431ZM88.5434 10.2588C89.4846 9.54771 90.3525 9.06667 91.1473 8.81569C91.9421 8.56471 92.7578 8.43922 93.5944 8.43922C94.3473 8.43922 95.0375 8.55425 95.6649 8.78431C96.2924 8.99346 96.8257 9.30719 97.265 9.72549C97.7042 10.1229 98.0493 10.6144 98.3002 11.2C98.5512 11.7647 98.6767 12.3922 98.6767 13.0824C98.6767 14.2745 98.6558 15.4667 98.614 16.6588C98.5721 17.8301 98.5512 19.0745 98.5512 20.3922C98.5512 20.6431 98.5512 20.915 98.5512 21.2078C98.5721 21.4797 98.6244 21.7307 98.7081 21.9608C98.7917 22.1699 98.9068 22.3477 99.0532 22.4941C99.2205 22.6405 99.461 22.7137 99.7747 22.7137C99.8793 22.7137 99.9839 22.7137 100.088 22.7137C100.214 22.6928 100.329 22.651 100.434 22.5882V23.2784C100.204 23.383 99.9107 23.4667 99.5551 23.5294C99.2205 23.5922 98.844 23.6235 98.4257 23.6235C97.7565 23.6235 97.244 23.4562 96.8885 23.1216C96.5329 22.766 96.3238 22.3163 96.261 21.7725C95.5081 22.5255 94.7656 23.0797 94.0336 23.4353C93.3016 23.7909 92.4022 23.9686 91.3355 23.9686C90.8127 23.9686 90.3002 23.8954 89.7983 23.749C89.2963 23.6026 88.8466 23.3621 88.4493 23.0275C88.0728 22.6928 87.7591 22.2954 87.5081 21.8353C87.278 21.3542 87.163 20.8105 87.163 20.2039C87.163 18.949 87.5499 17.9765 88.3238 17.2863C89.1185 16.5961 90.2061 16.1359 91.5865 15.9059C92.7159 15.7176 93.5944 15.5608 94.2218 15.4353C94.8702 15.2889 95.3408 15.1425 95.6336 14.9961C95.9473 14.8497 96.1355 14.6824 96.1983 14.4941C96.261 14.285 96.2924 14.0235 96.2924 13.7098C96.2924 13.1869 96.2297 12.685 96.1042 12.2039C95.9787 11.7229 95.78 11.3046 95.5081 10.949C95.2362 10.5935 94.8806 10.3111 94.4414 10.102C94.0022 9.8719 93.4689 9.75686 92.8414 9.75686C92.0048 9.75686 91.2205 9.9451 90.4885 10.3216C89.7774 10.698 89.244 11.2209 88.8885 11.8902H88.5434V10.2588Z" fill="white"/>
<path d="M104.732 9.03529C104.732 8.32418 104.721 7.55033 104.7 6.71373C104.7 5.87712 104.69 5.05098 104.669 4.23529C104.648 3.41961 104.617 2.64575 104.575 1.91373C104.554 1.16078 104.522 0.522875 104.481 0C105.066 0.104575 105.537 0.156863 105.892 0.156863C106.248 0.156863 106.719 0.104575 107.304 0C107.262 0.522875 107.221 1.16078 107.179 1.91373C107.158 2.64575 107.137 3.41961 107.116 4.23529C107.095 5.05098 107.074 5.87712 107.053 6.71373C107.053 7.55033 107.053 8.32418 107.053 9.03529V14.7137C107.053 15.4248 107.053 16.1987 107.053 17.0353C107.074 17.8719 107.095 18.698 107.116 19.5137C107.137 20.3294 107.158 21.1033 107.179 21.8353C107.221 22.5673 107.262 23.1739 107.304 23.6549C106.823 23.6131 106.353 23.5922 105.892 23.5922C105.432 23.5922 104.962 23.6131 104.481 23.6549C104.522 23.1739 104.554 22.5673 104.575 21.8353C104.617 21.1033 104.648 20.3294 104.669 19.5137C104.69 18.698 104.7 17.8719 104.7 17.0353C104.721 16.1987 104.732 15.4248 104.732 14.7137V9.03529Z" fill="white"/>
<path d="M118.554 4.08342H120.887C121.197 4.08342 121.494 4.20633 121.712 4.42512C121.931 4.64392 122.054 4.94066 122.054 5.25008V6.41675C122.054 6.90675 121.762 7.32092 121.331 7.49592L122.054 9.91675H120.887L120.187 7.58342H119.721V9.91675H118.554V4.08342ZM119.721 5.25008V6.41675H120.887V5.25008H119.721ZM120.304 1.16675C121.07 1.16675 121.829 1.31763 122.536 1.61078C123.244 1.90394 123.887 2.33362 124.429 2.87529C124.971 3.41697 125.4 4.06003 125.693 4.76776C125.986 5.47549 126.137 6.23404 126.137 7.00008C126.137 8.54718 125.523 10.0309 124.429 11.1249C123.335 12.2188 121.851 12.8334 120.304 12.8334C119.538 12.8334 118.779 12.6825 118.072 12.3894C117.364 12.0962 116.721 11.6665 116.179 11.1249C115.085 10.0309 114.471 8.54718 114.471 7.00008C114.471 5.45299 115.085 3.96925 116.179 2.87529C117.273 1.78133 118.757 1.16675 120.304 1.16675ZM120.304 2.33341C119.066 2.33341 117.879 2.82508 117.004 3.70025C116.129 4.57542 115.637 5.7624 115.637 7.00008C115.637 9.57258 117.726 11.6667 120.304 11.6667C121.542 11.6667 122.729 11.1751 123.604 10.2999C124.479 9.42474 124.971 8.23776 124.971 7.00008C124.971 5.7624 124.479 4.57542 123.604 3.70025C122.729 2.82508 121.542 2.33341 120.304 2.33341Z" fill="white"/>
</g>
</svg>
