<svg width="176" height="177" viewBox="0 0 176 177" fill="none" xmlns="http://www.w3.org/2000/svg">
<path d="M88.4892 167.034C126.56 167.034 157.423 136.39 157.423 98.5894C157.423 60.7885 126.56 30.1448 88.4892 30.1448C50.4182 30.1448 19.5557 60.7885 19.5557 98.5894C19.5557 136.39 50.4182 167.034 88.4892 167.034Z" fill="#FFF"/>
<path d="M72.0277 47.1917C63.0115 49.438 54.5405 53.4786 47.1208 59.0721C39.7012 64.6657 33.4851 71.6973 28.8439 79.7471" stroke="#D68F4C" stroke-linecap="round" stroke-linejoin="round"/>
<path d="M52.4661 77.0564C41.7228 71.4549 35.2309 63.7565 35.2309 56.5273" stroke="#D68F4C" stroke-linecap="round" stroke-linejoin="round"/>
<path d="M132.466 72.393C122.373 80.2446 106.105 85.2332 88.7648 85.2428" stroke="#D68F4C" stroke-linecap="round" stroke-linejoin="round"/>
<path d="M58.8052 36.4101C68.1163 31.9436 78.3143 29.633 88.6413 29.6501C92.7212 29.6481 96.7935 30.0038 100.811 30.7129" stroke="#D68F4C" stroke-linecap="round" stroke-linejoin="round"/>
<path d="M25.9049 69.9133C32.6382 55.2513 44.2773 43.3988 58.8146 36.4004" stroke="#D68F4C" stroke-linecap="round" stroke-linejoin="round"/>
<path d="M100.811 30.7128C114.128 33.0901 126.45 39.3378 136.239 48.6757" stroke="#D68F4C" stroke-linecap="round" stroke-linejoin="round"/>
<path d="M57.5601 37.0422C71.34 30.1098 87.0392 27.9734 102.171 30.9716" stroke="#D68F4C" stroke-linecap="round" stroke-linejoin="round"/>
<path d="M135.521 47.996C147.037 58.6252 154.58 72.8665 156.902 88.3647C157.41 91.7755 157.666 95.2191 157.668 98.6675C157.68 109.035 155.356 119.272 150.867 128.617C146.379 137.963 139.842 146.177 131.743 152.649C123.644 159.121 114.19 163.684 104.085 166C93.9792 168.316 83.4818 168.326 73.3724 166.027C63.2629 163.728 53.8015 159.181 45.691 152.723C37.5806 146.265 31.0297 138.063 26.5251 128.725C22.0205 119.387 19.6781 109.155 19.6719 98.7871C19.6658 88.4197 21.996 78.1841 26.4894 68.841" stroke="#D68F4C" stroke-linecap="round" stroke-linejoin="round"/>
<path d="M88.669 56.6997C77.763 56.6997 69.605 51.3472 69.605 46.5597C69.6094 46.044 69.7 45.5326 69.8731 45.0468C69.9985 44.6842 70.1588 44.3347 70.3518 44.0031C72.9371 39.5315 80.4823 36.41 88.669 36.41C96.4249 36.41 105.579 39.6369 107.465 45.0277C107.64 45.5162 107.731 46.0311 107.733 46.5501C107.72 47.4528 107.465 48.3354 106.996 49.1066C104.411 53.5687 96.8749 56.6901 88.669 56.6997Z" stroke="#D68F4C" stroke-linecap="round" stroke-linejoin="round"/>
<path d="M156.911 87.6561C156.849 90.8914 155.916 94.0501 154.211 96.8003C144.981 112.8 118.008 123.974 88.6217 123.984C49.5744 123.984 20.3895 104.834 20.3895 87.6848" stroke="#D68F4C" stroke-linecap="round" stroke-linejoin="round"/>
<path d="M150.506 129.289C138.939 142.454 114.752 151.311 88.6601 151.311C60.5954 151.311 37.6247 141.411 26.9293 129.48" stroke="#D68F4C" stroke-linecap="round" stroke-linejoin="round"/>
<path d="M92.385 85.1668C91.1498 85.1668 89.9146 85.2434 88.6603 85.2434C73.0337 85.2434 59.4179 81.3367 49.8428 75.7257" stroke="#D68F4C" stroke-linecap="round" stroke-linejoin="round"/>
<path d="M142.358 56.6615C142.319 59.2053 141.599 61.6922 140.27 63.862C139.196 65.6769 137.911 67.3579 136.44 68.8698C134.758 70.6179 132.907 72.1959 130.915 73.5807" stroke="#D68F4C" stroke-linecap="round" stroke-linejoin="round"/>
<path d="M49.1532 150.249C48.5149 148.002 47.9595 145.72 47.4871 143.402C46.9126 140.626 46.4658 137.804 46.1466 134.938C45.7455 131.409 45.5473 127.861 45.553 124.31C45.553 121.322 45.687 118.367 45.9551 115.443C47.1223 102.791 50.8455 90.5066 56.8995 79.3353V79.3353C62.1121 69.7003 68.9541 61.0409 77.1221 53.741C80.6215 50.5916 84.3536 47.7109 88.2867 45.1234L88.4495 45.0181C94.0236 41.3698 99.9676 38.3208 106.183 35.9217" stroke="#D68F4C" stroke-linecap="round" stroke-linejoin="round"/>
<path d="M103.932 57.9062C102.515 56.4699 101.056 55.0815 99.5559 53.741C96.0514 50.5937 92.3163 47.7132 88.3818 45.1234L88.2286 45.0181C82.6496 41.3723 76.7027 38.3234 70.4859 35.9217" stroke="#D68F4C" stroke-linecap="round" stroke-linejoin="round"/>
<path d="M126.09 93.7549C124.376 88.7808 122.253 83.9575 119.741 79.3348C115.508 71.4823 110.186 64.2678 103.933 57.9057" stroke="#D68F4C" stroke-linecap="round" stroke-linejoin="round"/>
<path d="M130.714 115.443C130.028 108.057 128.476 100.778 126.089 93.7553" stroke="#D68F4C" stroke-linecap="round" stroke-linejoin="round"/>
<path d="M104.009 57.8296C102.63 56.438 101.213 55.0911 99.7578 53.7889C96.3151 50.7022 92.6472 47.8761 88.7847 45.3341L88.6219 45.2767C85.8796 43.4788 83.0447 41.8264 80.1288 40.3263C76.7446 38.5724 73.2559 37.0279 69.6824 35.7015" stroke="#D68F4C" stroke-linecap="round" stroke-linejoin="round"/>
<path d="M127.64 150.23C128.282 147.97 128.847 145.681 129.316 143.364C129.89 140.581 130.337 137.756 130.656 134.89C131.058 131.362 131.256 127.813 131.25 124.262C131.25 121.274 131.113 118.319 130.838 115.395C130.535 112.107 130.059 108.838 129.412 105.6M126.214 93.7172C127.536 97.6045 128.605 101.574 129.412 105.6L126.214 93.7172Z" stroke="#D68F4C" stroke-linecap="round" stroke-linejoin="round"/>
<path d="M20.1601 106.385C21.29 96.1145 24.7269 86.2325 30.214 77.4776" stroke="#D68F4C" stroke-linecap="round" stroke-linejoin="round"/>
<path d="M61.6102 50.648C70.1148 47.0246 79.2623 45.1521 88.5067 45.1423H88.6694C105.637 45.1292 122.013 51.3734 134.664 62.6799C147.314 73.9864 155.352 89.561 157.237 106.423" stroke="#D68F4C" stroke-linecap="round" stroke-linejoin="round"/>
<path d="M88.6702 33.4802V85.2432V163.108" stroke="#D68F4C" stroke-linecap="round" stroke-linejoin="round"/>
<path d="M134.851 12.8742C131.902 7.75156 127.191 4.5822 122.556 4.5822C121.969 4.58256 121.382 4.63704 120.804 4.74498C119.836 4.92586 118.906 5.27245 118.056 5.76951L111.871 9.32188C106.815 12.2423 105.723 19.596 109.209 26.3464L120.048 49.8246H120.871L126.329 46.8372L136.067 27.3039C136.949 25.5667 137.396 23.6411 137.369 21.6929C137.316 18.5837 136.447 15.5429 134.851 12.8742Z" fill="#FFF"/>
<path d="M119.74 26.6149C118.218 26.6149 116.447 25.3126 115.317 23.3689C113.881 20.8698 113.948 18.026 115.46 17.1546C115.649 17.0404 115.856 16.9625 116.073 16.9248C116.216 16.9098 116.361 16.9098 116.504 16.9248C118.027 16.9248 119.798 18.2271 120.918 20.1708C122.163 22.3252 122.316 24.7669 121.282 25.9733C121.141 26.1412 120.973 26.2837 120.784 26.3946C120.461 26.5564 120.102 26.6322 119.74 26.6149Z" stroke="#D68F4C" stroke-linecap="round" stroke-linejoin="round"/>
<path d="M122.614 42.7965L124.242 39.5314L128.694 30.6169C129.564 28.9035 130.005 27.0041 129.977 25.0825C129.922 22.0119 129.067 19.0087 127.497 16.3692C126.392 14.4279 124.945 12.7022 123.227 11.2752" stroke="#D68F4C" stroke-linecap="round" stroke-linejoin="round"/>
<path d="M123.897 4.66838C123.452 4.61076 123.005 4.58198 122.556 4.5822C121.969 4.58256 121.382 4.63705 120.804 4.74498C119.836 4.92586 118.906 5.27246 118.056 5.76951L111.871 9.32188C106.815 12.2423 105.723 19.596 109.209 26.3464L117.826 45.1137C118.112 45.729 118.517 46.2818 119.018 46.7399C119.518 47.1981 120.104 47.5527 120.743 47.7832C121.381 48.0138 122.058 48.1157 122.736 48.0831C123.414 48.0506 124.078 47.8842 124.692 47.5936V47.5936C125.732 47.1053 126.576 46.2782 127.085 45.2477L136.029 27.3039C136.911 25.5667 137.358 23.6411 137.331 21.6929C137.277 18.5837 136.409 15.5429 134.812 12.8742C132.189 8.24947 128.081 5.21416 123.897 4.66838Z" stroke="#D68F4C" stroke-linecap="round" stroke-linejoin="round"/>
<path d="M52.3223 41.0923C49.3732 35.9792 44.6622 32.8002 40.0279 32.8002C39.4364 32.7997 38.8462 32.8574 38.266 32.9726C37.2861 33.1492 36.3437 33.4925 35.4797 33.9875L29.2942 37.5399C24.2768 40.489 23.1852 47.814 26.6706 54.5644L37.5096 78.0426H38.3522L43.8196 75.0552L53.5383 55.5315C54.4184 53.7935 54.8651 51.8685 54.8406 49.9205C54.7875 46.8082 53.9192 43.7642 52.3223 41.0923Z" fill="#FFF"/>
<path d="M37.1839 54.8515C35.6615 54.8515 33.8805 53.5397 32.7602 51.5959C31.3239 49.1064 31.391 46.253 32.9038 45.3817C33.0958 45.2756 33.3022 45.1982 33.5166 45.1519C33.6569 45.142 33.7977 45.142 33.9379 45.1519C35.4604 45.1519 37.2413 46.4637 38.3616 48.4074C39.6064 50.5618 39.7596 53.0035 38.7255 54.2004C38.582 54.3691 38.4103 54.5116 38.218 54.6217C37.9018 54.794 37.5434 54.8736 37.1839 54.8515Z" stroke="#D68F4C" stroke-linecap="round" stroke-linejoin="round"/>
<path d="M40.0562 71.0146L41.7127 67.7016L46.1556 58.7872C47.0259 57.0738 47.4663 55.1743 47.4386 53.2528C47.3834 50.1821 46.5286 47.1789 44.9587 44.5394C43.8549 42.6 42.4116 40.8746 40.6977 39.4454" stroke="#D68F4C" stroke-linecap="round" stroke-linejoin="round"/>
<path d="M41.3684 32.896C40.3374 32.7463 39.2884 32.7722 38.266 32.9726C37.2861 33.1493 36.3437 33.4925 35.4797 33.9876L29.2942 37.54C24.2768 40.4891 23.1852 47.8141 26.6706 54.5645L35.3361 73.3317C35.6212 73.9456 36.0246 74.4971 36.5233 74.9546C37.0221 75.4121 37.6062 75.7667 38.2422 75.998C38.8783 76.2293 39.5538 76.3328 40.2299 76.3024C40.906 76.2721 41.5695 76.1086 42.1823 75.8213V75.8213C43.2169 75.3244 44.0584 74.4997 44.576 73.4754L53.5192 55.5316C54.3992 53.7936 54.846 51.8685 54.8214 49.9206C54.7684 46.8083 53.9001 43.7643 52.3032 41.0923C49.6604 36.4771 45.5527 33.4322 41.3684 32.896Z" stroke="#D68F4C" stroke-linecap="round" stroke-linejoin="round"/>
<path d="M123.571 70.4212C120.612 65.3081 115.911 62.1387 111.267 62.1387C110.679 62.1391 110.092 62.1936 109.514 62.3015C108.548 62.4835 107.619 62.8266 106.766 63.3165L100.59 66.8784C95.5347 69.7509 94.4431 77.1525 97.9285 83.903L108.768 107.381H109.591L115.049 104.394L124.787 84.8605C125.669 83.1232 126.116 81.1977 126.089 79.2495C126.031 76.1379 125.163 73.0953 123.571 70.4212Z" fill="#FFF"/>
<path d="M108.423 84.1711C106.901 84.1711 105.13 82.8689 104.009 80.9252C102.564 78.426 102.631 75.5822 104.153 74.7013C104.339 74.5927 104.544 74.5182 104.756 74.4811C104.899 74.466 105.044 74.466 105.187 74.4811C106.71 74.4811 108.481 75.7833 109.611 77.7271C110.846 79.8815 110.999 82.3231 109.965 83.5296C109.777 83.7529 109.54 83.9303 109.273 84.0481C109.006 84.166 108.715 84.2211 108.423 84.2094V84.1711Z" stroke="#D68F4C" stroke-linecap="round" stroke-linejoin="round"/>
<path d="M111.305 100.353L112.952 97.0401L117.405 88.1256C118.27 86.4209 118.711 84.5318 118.688 82.6199C118.632 79.5493 117.778 76.5461 116.208 73.9066C115.103 71.9653 113.656 70.2396 111.937 68.8126" stroke="#D68F4C" stroke-linecap="round" stroke-linejoin="round"/>
<path d="M112.617 62.2249C112.169 62.1676 111.718 62.1388 111.267 62.1387C110.679 62.1391 110.092 62.1936 109.514 62.3015C108.548 62.4835 107.619 62.8266 106.766 63.3165L100.59 66.8784C95.5347 69.7509 94.4431 77.1525 97.9285 83.903L106.594 102.67C106.879 103.285 107.283 103.838 107.782 104.296C108.282 104.754 108.868 105.108 109.505 105.339C110.142 105.57 110.819 105.672 111.496 105.639C112.173 105.607 112.837 105.441 113.45 105.15V105.15C114.49 104.661 115.334 103.834 115.844 102.804L124.787 84.8605C125.669 83.1232 126.116 81.1977 126.089 79.2495C126.031 76.1379 125.163 73.0953 123.571 70.4212C120.899 65.806 116.791 62.7707 112.617 62.2249Z" stroke="#D68F4C" stroke-linecap="round" stroke-linejoin="round"/>
</svg>
